<?xml version="1.0" encoding="utf-8" ?>
<svg baseProfile="tiny" height="100%" version="1.2" width="100%" xmlns="http://www.w3.org/2000/svg" xmlns:ev="http://www.w3.org/2001/xml-events" xmlns:xlink="http://www.w3.org/1999/xlink"><defs /><rect fill="white" height="25" stroke-width="0" width="25" x="0" y="0" /><line stroke="black" stroke-width="0.5" x1="0" x2="5" y1="5" y2="5" /><line stroke="black" stroke-width="0.5" x1="5" x2="10" y1="5" y2="5" /><line stroke="black" stroke-width="0.5" x1="15" x2="15" y1="0" y2="5" /><line stroke="black" stroke-width="0.5" x1="25" x2="25" y1="0" y2="5" /><line stroke="black" stroke-width="0.5" x1="5" x2="10" y1="10" y2="10" /><line stroke="black" stroke-width="0.5" x1="15" x2="15" y1="5" y2="10" /><line stroke="black" stroke-width="0.5" x1="20" x2="20" y1="5" y2="10" /><line stroke="black" stroke-width="0.5" x1="25" x2="25" y1="5" y2="10" /><line stroke="black" stroke-width="0.5" x1="10" x2="10" y1="10" y2="15" /><line stroke="black" stroke-width="0.5" x1="15" x2="15" y1="10" y2="15" /><line stroke="black" stroke-width="0.5" x1="10" x2="15" y1="15" y2="15" /><line stroke="black" stroke-width="0.5" x1="20" x2="20" y1="10" y2="15" /><line stroke="black" stroke-width="0.5" x1="15" x2="20" y1="15" y2="15" /><line stroke="black" stroke-width="0.5" x1="25" x2="25" y1="10" y2="15" /><line stroke="black" stroke-width="0.5" x1="5" x2="5" y1="15" y2="20" /><line stroke="black" stroke-width="0.5" x1="10" x2="10" y1="15" y2="20" /><line stroke="black" stroke-width="0.5" x1="15" x2="20" y1="20" y2="20" /><line stroke="black" stroke-width="0.5" x1="25" x2="25" y1="15" y2="20" /><line stroke="black" stroke-width="0.5" x1="20" x2="25" y1="20" y2="20" /><line stroke="black" stroke-width="0.5" x1="5" x2="5" y1="20" y2="25" /><line stroke="black" stroke-width="0.5" x1="0" x2="5" y1="25" y2="25" /><line stroke="black" stroke-width="0.5" x1="5" x2="10" y1="25" y2="25" /><line stroke="black" stroke-width="0.5" x1="10" x2="15" y1="25" y2="25" /><line stroke="black" stroke-width="0.5" x1="15" x2="20" y1="25" y2="25" /><line stroke="black" stroke-width="0.5" x1="25" x2="25" y1="20" y2="25" /><line stroke="black" stroke-width="0.5" x1="20" x2="25" y1="25" y2="25" /><line stroke="black" stroke-width="2" x1="0" x2="25" y1="0" y2="0" /><line stroke="black" stroke-width="2" x1="0" x2="0" y1="0" y2="25" /><line stroke="black" stroke-width="2" x1="0" x2="25" y1="25" y2="25" /><line stroke="black" stroke-width="2" x1="25" x2="25" y1="0" y2="25" /></svg>